<?xml version="1.0" encoding="UTF-8" standalone="no"?>
<!-- Created with Inkscape (http://www.inkscape.org/) -->

<svg
   xmlns:dc="http://purl.org/dc/elements/1.1/"
   xmlns:cc="http://creativecommons.org/ns#"
   xmlns:rdf="http://www.w3.org/1999/02/22-rdf-syntax-ns#"
   xmlns:svg="http://www.w3.org/2000/svg"
   xmlns="http://www.w3.org/2000/svg"
   xmlns:sodipodi="http://sodipodi.sourceforge.net/DTD/sodipodi-0.dtd"
   xmlns:inkscape="http://www.inkscape.org/namespaces/inkscape"
   width="29.318996mm"
   height="29.947227mm"
   viewBox="0 0 29.318996 29.947228"
   version="1.1"
   id="svg8"
   sodipodi:docname="vector_logo_00.svg"
   inkscape:version="0.92.4 (5da689c313, 2019-01-14)">
  <defs
     id="defs2" />
  <sodipodi:namedview
     id="base"
     pagecolor="#ffffff"
     bordercolor="#666666"
     borderopacity="1.0"
     inkscape:pageopacity="0.0"
     inkscape:pageshadow="2"
     inkscape:zoom="3.6203867"
     inkscape:cx="104.27127"
     inkscape:cy="50.575204"
     inkscape:document-units="mm"
     inkscape:current-layer="layer1"
     showgrid="false"
     fit-margin-top="0"
     fit-margin-left="0"
     fit-margin-right="0"
     fit-margin-bottom="0"
     inkscape:pagecheckerboard="true"
     inkscape:window-width="1280"
     inkscape:window-height="778"
     inkscape:window-x="-8"
     inkscape:window-y="760"
     inkscape:window-maximized="1" />
  <metadata
     id="metadata5">
    <rdf:RDF>
      <cc:Work
         rdf:about="">
        <dc:format>image/svg+xml</dc:format>
        <dc:type
           rdf:resource="http://purl.org/dc/dcmitype/StillImage" />
        <dc:title></dc:title>
      </cc:Work>
    </rdf:RDF>
  </metadata>
  <g
     inkscape:label="Layer 1"
     inkscape:groupmode="layer"
     id="layer1"
     transform="translate(-45.870329,-114.58923)">
    <path
       style="fill:#000000;stroke-width:0.2302964"
       d="m 56.872449,144.14692 c -5.364185,-1.47831 -9.516497,-5.87056 -10.708253,-11.32702 -0.497725,-2.27884 -0.346927,-5.8586 0.329188,-7.81451 1.982072,-5.73386 6.813385,-9.82466 12.207195,-10.33617 7.48803,-0.7101 13.60301,3.34627 16.02863,10.63259 0.64521,1.93814 0.60478,6.52486 -0.0768,8.71615 -1.42094,4.56817 -5.20062,8.45171 -9.648,9.91311 -2.16419,0.71116 -5.96829,0.81212 -8.13193,0.21585 z m 8.17614,-0.62743 c 5.79245,-1.86391 9.76585,-7.38668 9.84597,-13.68528 0.0354,-2.7885 -0.28241,-4.24127 -1.49642,-6.83877 -2.23579,-4.78375 -7.53587,-8.14493 -12.84331,-8.14493 -5.30743,0 -10.607514,3.36118 -12.843307,8.14493 -1.214002,2.5975 -1.531888,4.05027 -1.496416,6.83877 0.06309,4.96016 2.316528,9.19006 6.365463,11.94858 3.68715,2.51204 8.1337,3.1314 12.46802,1.7367 z m -7.94797,-0.0838 c -4.22626,-1.1286 -7.482056,-3.91439 -9.326012,-7.9797 -3.624759,-7.9914 0.924621,-17.62609 9.348392,-19.79806 1.7445,-0.4498 5.11917,-0.4498 6.86366,0 8.42378,2.17197 12.97316,11.80666 9.3484,19.79806 -2.88642,6.36359 -9.71586,9.72046 -16.23444,7.9797 z m 6.16294,-0.58316 c 5.08484,-1.09736 9.22252,-5.31208 10.29982,-10.49161 1.99813,-9.60677 -6.6656,-18.25645 -16.03277,-16.00678 -5.858229,1.40696 -10.316487,7.1319 -10.316487,13.24762 0,8.44763 7.937887,15.00133 16.049437,13.25077 z m -5.72708,-0.43816 c -3.72425,-0.96373 -6.922881,-3.65191 -8.607975,-7.23428 -4.097264,-8.71043 2.116623,-18.71065 11.626325,-18.71065 7.50781,0 13.2281,6.16585 12.83025,13.82961 -0.27914,5.37707 -3.64613,9.91313 -8.73846,11.77258 -1.69601,0.61929 -5.35907,0.79587 -7.11014,0.34274 z m 7.07228,-0.73704 c 1.98779,-0.67803 3.44871,-1.64353 5.00122,-3.30524 2.39135,-2.55953 3.42655,-5.15381 3.4533,-8.65411 0.0197,-2.58034 -0.39843,-4.27275 -1.60054,-6.47825 -1.80782,-3.31676 -5.37332,-5.79388 -9.1457,-6.35395 -6.13976,-0.91154 -12.084787,3.04092 -13.882422,9.22952 -0.873891,3.00849 -0.369875,7.07045 1.225717,9.87831 0.78607,1.38328 2.817795,3.53679 4.171735,4.42179 3.05677,1.99805 7.19723,2.48289 10.77669,1.26193 z m 4.7673,-6.09048 c 0.0199,-0.0959 -0.043,-0.3587 -0.13962,-0.58403 -0.21666,-0.50483 0.20804,-1.07802 0.74087,-0.99989 0.47464,0.0696 0.64064,0.96114 0.26483,1.42239 -0.28346,0.3479 -0.92986,0.46847 -0.86608,0.16153 z m 0.64832,-0.98783 c 0,-0.12783 -0.10268,-0.23243 -0.22818,-0.23243 -0.1255,0 -0.22818,0.1046 -0.22818,0.23243 0,0.12784 0.10268,0.23243 0.22818,0.23243 0.1255,0 0.22818,-0.10459 0.22818,-0.23243 z M 50.847602,134.936 c -0.401263,-0.49249 0.298199,-1.29803 0.738056,-0.84999 0.215143,0.21915 0.190521,0.28058 -0.112461,0.28058 -0.21335,0 -0.387909,0.1046 -0.387909,0.23243 0,0.12784 0.154023,0.23243 0.342273,0.23243 0.188249,0 0.342272,0.10459 0.342272,0.23243 0,0.35771 -0.593661,0.27539 -0.922231,-0.12788 z m 1.150413,-0.19365 c 0,-0.3585 0.161034,-0.59687 0.456364,-0.67554 0.251,-0.0668 0.45636,-0.014 0.45636,0.11757 0,0.15859 0.0961,0.16193 0.28523,0.01 0.57139,-0.45916 1.08386,-0.24949 1.08386,0.44345 0,0.50267 -0.10756,0.65856 -0.45443,0.65856 -0.24993,0 -0.58268,-0.20919 -0.73943,-0.46486 -0.15675,-0.25567 -0.36299,-0.46486 -0.4583,-0.46486 -0.0953,0 -0.17329,0.20919 -0.17329,0.46486 0,0.25567 -0.10268,0.46486 -0.228182,0.46486 -0.1255,0 -0.228182,-0.24928 -0.228182,-0.55396 z m 1.825454,-0.14333 c 0,-0.12783 -0.10268,-0.23243 -0.22818,-0.23243 -0.1255,0 -0.22818,0.1046 -0.22818,0.23243 0,0.12784 0.10268,0.23243 0.22818,0.23243 0.1255,0 0.22818,-0.10459 0.22818,-0.23243 z m 0.68455,0.46819 c 0,-0.14869 0.12408,-0.18726 0.28522,-0.0886 0.18499,0.1132 0.17236,0.0328 -0.036,-0.22857 -0.24058,-0.30194 -0.25585,-0.46967 -0.0609,-0.6683 0.32432,-0.33036 0.46875,-0.1928 0.54826,0.52215 0.0418,0.37614 -0.0678,0.58471 -0.33736,0.64187 -0.21962,0.0466 -0.39931,-0.0337 -0.39931,-0.17851 z m 1.18802,-0.70062 c -0.009,-0.57527 0.0548,-0.88905 0.14006,-0.6973 0.0853,0.19176 0.30912,0.34865 0.49737,0.34865 0.20376,0 0.37149,0.25866 0.41448,0.63919 0.0397,0.35154 -0.0374,0.63918 -0.17114,0.63918 -0.13384,0 -0.24334,-0.20919 -0.24334,-0.46486 0,-0.63415 -0.40103,-0.58964 -0.52351,0.0581 -0.0544,0.28763 -0.10565,0.0523 -0.11392,-0.52298 z m 2.01001,-0.0419 c 0.002,-0.5522 0.0789,-0.89177 0.17114,-0.75461 0.0922,0.13717 0.35454,0.31973 0.58297,0.40572 0.59959,0.22569 0.41676,1.183 -0.24419,1.27861 -0.46487,0.0673 -0.51308,-0.0206 -0.50992,-0.92972 z m 0.90924,0.27438 c 0,-0.12784 -0.15403,-0.23244 -0.34228,-0.23244 -0.18824,0 -0.34226,0.1046 -0.34226,0.23244 0,0.12783 0.15402,0.23243 0.34226,0.23243 0.18825,0 0.34228,-0.1046 0.34228,-0.23243 z m 0.53209,0.33062 c -0.076,-0.20167 0.0362,-0.5416 0.24929,-0.7554 0.36216,-0.36338 0.40629,-0.36286 0.67667,0.008 0.26672,0.36583 0.31808,0.36738 0.65915,0.0199 0.2946,-0.30009 0.43776,-0.31941 0.7033,-0.0949 0.18338,0.15502 0.38771,0.19237 0.45407,0.083 0.0663,-0.10938 0.50697,-0.1828 0.97912,-0.16317 0.9688,0.0403 1.51361,0.60094 1.04641,1.07684 -0.22134,0.22546 -0.2801,0.17805 -0.2801,-0.22603 0,-0.28124 -0.10268,-0.51135 -0.22818,-0.51135 -0.1255,0 -0.22819,0.20919 -0.22819,0.46486 0,0.25567 -0.10268,0.46487 -0.22818,0.46487 -0.1255,0 -0.22818,-0.2092 -0.22818,-0.46487 0,-0.25567 -0.10268,-0.46486 -0.22818,-0.46486 -0.1255,0 -0.22818,0.222 -0.22818,0.49332 0,0.38297 -0.0676,0.4362 -0.30206,0.23797 -0.22,-0.18598 -0.37237,-0.18376 -0.56079,0.008 -0.19284,0.19643 -0.3508,0.1857 -0.62033,-0.0422 -0.27391,-0.23155 -0.42569,-0.24043 -0.62577,-0.0366 -0.37282,0.37976 -0.84731,0.3339 -1.00987,-0.0976 z m 0.837,-0.33062 c 0,-0.12784 -0.10269,-0.23244 -0.22819,-0.23244 -0.12549,0 -0.22817,0.1046 -0.22817,0.23244 0,0.12783 0.10268,0.23243 0.22817,0.23243 0.1255,0 0.22819,-0.1046 0.22819,-0.23243 z m 1.36909,0 c 0,-0.12784 -0.10269,-0.23244 -0.22818,-0.23244 -0.1255,0 -0.22818,0.1046 -0.22818,0.23244 0,0.12783 0.10268,0.23243 0.22818,0.23243 0.12549,0 0.22818,-0.1046 0.22818,-0.23243 z m 3.57485,0.54234 c -0.24038,-0.24485 -0.17697,-1.47207 0.0761,-1.47207 0.1255,0 0.22818,0.11077 0.22818,0.24615 0,0.13538 0.091,0.18883 0.20233,0.11878 0.30146,-0.18979 0.78164,0.50528 0.629,0.91048 -0.13414,0.35605 -0.85632,0.48111 -1.13557,0.19666 z m 0.7606,-0.54234 c 0,-0.12784 -0.10267,-0.23244 -0.22817,-0.23244 -0.1255,0 -0.22819,0.1046 -0.22819,0.23244 0,0.12783 0.10269,0.23243 0.22819,0.23243 0.1255,0 0.22817,-0.1046 0.22817,-0.23243 z m 0.76707,0.34864 c -0.20677,-0.54885 0.0773,-1.02229 0.58978,-0.98297 0.67386,0.0517 0.67875,1.33162 0.005,1.33162 -0.25494,0 -0.52263,-0.1569 -0.59487,-0.34865 z m 0.71612,-0.34864 c -0.0775,-0.12784 -0.23765,-0.23244 -0.35574,-0.23244 -0.1181,0 -0.21472,0.1046 -0.21472,0.23244 0,0.12783 0.16008,0.23243 0.35574,0.23243 0.19566,0 0.29228,-0.1046 0.21472,-0.23243 z m 0.57045,0.14332 c 0,-0.36398 0.16131,-0.59693 0.47032,-0.67925 0.51885,-0.13821 0.77374,0.255 0.60226,0.9291 -0.0847,0.33296 -0.11241,0.31162 -0.13339,-0.10263 -0.0327,-0.64656 -0.48282,-0.70073 -0.48282,-0.0581 0,0.25567 -0.10269,0.46486 -0.22819,0.46486 -0.1255,0 -0.22818,-0.24928 -0.22818,-0.55396 z m -6.8862,-5.72519 c -1.3773,-0.7275 -1.67154,-1.01346 -1.43831,-1.39786 0.0894,-0.1473 0.62063,0.0379 1.38256,0.48193 l 1.23741,0.72115 v -1.87651 c 0,-1.73267 0.0356,-1.8765 0.46462,-1.8765 0.44005,0 0.46118,0.11975 0.39932,2.2635 -0.0766,2.65594 -0.12721,2.69759 -2.0456,1.68429 z m -4.39901,0.25209 c -0.15293,-0.25204 7.50774,-7.57012 7.92451,-7.57012 0.15413,0 0.28024,0.11307 0.28024,0.25128 0,0.27251 -7.61408,7.53514 -7.89978,7.53514 -0.0956,0 -0.23279,-0.0973 -0.30497,-0.2163 z m -0.12388,-3.85124 v -2.20809 h 1.07596 c 0.87729,0 1.44571,-0.21736 3.07837,-1.17718 1.10133,-0.64744 2.10604,-1.11195 2.23268,-1.03222 0.12664,0.0798 0.23026,0.41248 0.23026,0.73944 0,0.49985 -0.0807,0.57297 -0.50709,0.45939 -0.3443,-0.0917 -0.96694,0.13893 -1.93955,0.71847 l -1.43245,0.85356 v 1.11385 c 0,0.83515 -0.0856,1.11386 -0.34227,1.11386 -0.25353,0 -0.34228,-0.27117 -0.34228,-1.04593 0,-1.0072 -0.0254,-1.04595 -0.68454,-1.04595 h -0.68455 v 1.5108 c 0,1.18799 0.0731,1.51081 0.34228,1.51081 0.18825,0 0.34227,0.15689 0.34227,0.34864 0,0.23243 -0.22818,0.34865 -0.68455,0.34865 h -0.68454 z"
       id="path3724"
       inkscape:connector-curvature="0"
       sodipodi:nodetypes="csscscccccccsscsccsscscsscsscsssccccccsscsccccccsssssscsssssscscsssssssssssssccccccccccscssccccccccsssssccccccccsssssssccccccsssssssssscssccccsssssccscccssscscccssssccccsscccssscccsccscccsssscsssscc" />
  </g>
</svg>
