<?xml version="1.0" encoding="UTF-8" standalone="no"?>
<!-- Created with Inkscape (http://www.inkscape.org/) -->

<svg
   xmlns:dc="http://purl.org/dc/elements/1.1/"
   xmlns:cc="http://creativecommons.org/ns#"
   xmlns:rdf="http://www.w3.org/1999/02/22-rdf-syntax-ns#"
   xmlns:svg="http://www.w3.org/2000/svg"
   xmlns="http://www.w3.org/2000/svg"
   xmlns:sodipodi="http://sodipodi.sourceforge.net/DTD/sodipodi-0.dtd"
   xmlns:inkscape="http://www.inkscape.org/namespaces/inkscape"
   width="38.099998mm"
   height="38.629166mm"
   viewBox="0 0 38.099998 38.629166"
   version="1.1"
   id="svg8"
   inkscape:version="0.92.4 (5da689c313, 2019-01-14)"
   sodipodi:docname="vector_logo.svg">
  <defs
     id="defs2" />
  <sodipodi:namedview
     id="base"
     pagecolor="#ffffff"
     bordercolor="#666666"
     borderopacity="1.0"
     inkscape:pageopacity="0.0"
     inkscape:pageshadow="2"
     inkscape:zoom="1.4"
     inkscape:cx="-72.550302"
     inkscape:cy="10.820169"
     inkscape:document-units="mm"
     inkscape:current-layer="layer1"
     showgrid="false"
     fit-margin-top="0"
     fit-margin-left="0"
     fit-margin-right="0"
     fit-margin-bottom="0"
     inkscape:pagecheckerboard="true"
     inkscape:window-width="1280"
     inkscape:window-height="778"
     inkscape:window-x="-8"
     inkscape:window-y="760"
     inkscape:window-maximized="1" />
  <metadata
     id="metadata5">
    <rdf:RDF>
      <cc:Work
         rdf:about="">
        <dc:format>image/svg+xml</dc:format>
        <dc:type
           rdf:resource="http://purl.org/dc/dcmitype/StillImage" />
        <dc:title></dc:title>
      </cc:Work>
    </rdf:RDF>
  </metadata>
  <g
     inkscape:label="Layer 1"
     inkscape:groupmode="layer"
     id="layer1"
     transform="translate(-87.539284,-110.61995)">
    <path
       id="path3724"
       style="fill:#000000;stroke-width:0.23029639"
       d="m 48.464961,119.411 c -0.456708,0.008 -0.918993,0.0331 -1.386993,0.0775 -5.393812,0.51151 -10.225453,4.60246 -12.207526,10.33632 -0.676114,1.95591 -0.826902,5.53567 -0.329179,7.81451 1.191758,5.45646 5.344205,9.84865 10.708392,11.32696 2.16364,0.59627 5.967613,0.49515 8.131803,-0.21601 4.44738,-1.4614 8.22705,-5.34492 9.64799,-9.91309 0.68158,-2.19129 0.722207,-6.77812 0.077,-8.71626 C 60.83243,123.29 55.31561,119.29821 48.464964,119.41099 Z m 0.467156,0.2589 c 5.307437,0 10.607354,3.36097 12.843144,8.14472 1.21401,2.5975 1.531949,4.05036 1.496549,6.83886 -0.08012,6.2986 -4.053462,11.82104 -9.84591,13.68495 -4.334321,1.3947 -8.780824,0.77571 -12.467972,-1.73633 -4.048935,-2.75852 -6.302415,-6.98846 -6.365505,-11.94862 -0.03547,-2.7885 0.282549,-4.24136 1.49655,-6.83886 2.235792,-4.78375 7.535714,-8.14472 12.843144,-8.14472 z m 0,0.46973 c -1.279792,0 -2.559581,0.11255 -3.431831,0.33745 -8.423772,2.17197 -12.973026,11.80688 -9.348268,19.79828 1.843958,4.06531 5.099788,6.85075 9.326046,7.97935 6.518582,1.74076 13.347731,-1.61576 16.234151,-7.97935 3.62476,-7.9914 -0.924487,-17.62631 -9.348266,-19.79828 -0.872245,-0.2249 -2.152042,-0.33745 -3.431832,-0.33745 z m 0.01085,0.67387 c 8.099494,0.0139 14.777242,7.81041 12.997657,16.36644 -1.0773,5.17953 -5.214789,9.3945 -10.299629,10.49186 -8.111551,1.75056 -16.049667,-4.80324 -16.049667,-13.25087 0,-6.11572 4.458454,-11.84081 10.316683,-13.24777 1.024536,-0.24605 2.040284,-0.36137 3.034956,-0.35966 z m -0.01085,0.4749 c -9.509701,0 -15.723428,10.00057 -11.626164,18.711 1.685094,3.58237 4.883494,6.27046 8.607745,7.23419 1.751068,0.45313 5.41415,0.27667 7.110159,-0.34262 5.09233,-1.85945 8.459345,-6.39585 8.738484,-11.77292 0.39785,-7.66376 -5.322417,-13.82965 -12.830224,-13.82965 z m 0.04392,0.28629 c 0.568929,0.002 1.14264,0.0448 1.718242,0.13022 3.77238,0.56007 7.337875,3.03738 9.145695,6.35414 1.20211,2.2055 1.620119,3.89782 1.600419,6.47816 -0.02675,3.50029 -1.061669,6.09472 -3.453019,8.65425 -1.55251,1.66171 -3.013455,2.62719 -5.001245,3.30522 -3.579459,1.22096 -7.719834,0.73611 -10.776602,-1.26194 -1.353941,-0.885 -3.385769,-3.03867 -4.171839,-4.42195 -1.595593,-2.80786 -2.099643,-6.86998 -1.225767,-9.87847 1.629109,-5.60841 6.664532,-9.38015 12.164116,-9.35963 z m 2.087729,4.23643 c -0.218762,-0.0123 -1.166333,0.43379 -2.198833,1.04077 -1.632659,0.95982 -2.201074,1.17719 -3.078364,1.17719 h -1.075904 v 2.20813 2.20813 h 0.684713 c 0.456369,0 0.684196,-0.11638 0.684196,-0.34881 0,-0.19175 -0.153847,-0.3483 -0.342098,-0.3483 -0.269179,0 -0.342098,-0.32303 -0.342098,-1.51102 v -1.51102 h 0.684196 c 0.659141,0 0.684713,0.0393 0.684713,1.04645 0,0.77476 0.08857,1.04593 0.342098,1.04593 0.25667,0 0.342614,-0.27899 0.342614,-1.11414 v -1.11363 l 1.43247,-0.8537 c 0.972614,-0.57954 1.595118,-0.81 1.939418,-0.7183 0.42639,0.11358 0.506945,0.0405 0.506945,-0.4594 0,-0.32696 -0.10332,-0.65969 -0.22996,-0.73949 -0.0079,-0.005 -0.01952,-0.008 -0.03411,-0.009 z m 1.695503,0.70745 c -0.416768,0 -8.07751,7.31804 -7.92458,7.57008 0.07218,0.119 0.20929,0.21601 0.30489,0.21601 0.285702,0 7.899777,-7.26243 7.899777,-7.53494 0,-0.13821 -0.125956,-0.25115 -0.280087,-0.25115 z m -1.879471,3.36982 c -0.42902,0 -0.464571,0.14422 -0.464571,1.87689 v 1.87637 l -1.237133,-0.7214 c -0.761931,-0.44403 -1.293463,-0.62892 -1.382863,-0.48162 -0.233231,0.3844 0.06086,0.67034 1.438155,1.39784 1.918392,1.0133 1.969272,0.97181 2.04587,-1.68413 0.06186,-2.14375 0.04059,-2.26395 -0.399458,-2.26395 z m -4.659148,8.47132 c -0.07654,-0.0193 -0.13571,0.30076 -0.137459,0.78393 -0.0031,0.90912 0.04518,0.99748 0.510048,0.93018 0.660935,-0.0956 0.843502,-1.0533 0.243912,-1.27899 -0.228431,-0.086 -0.49071,-0.26849 -0.582912,-0.40566 -0.01154,-0.0172 -0.02265,-0.0267 -0.03359,-0.0295 z m -2.066541,0.076 c -0.05348,0.0343 -0.08736,0.31888 -0.08061,0.75034 0.0083,0.57528 0.0593,0.81059 0.113686,0.52296 0.122481,-0.64774 0.523483,-0.69254 0.523483,-0.0584 0,0.25567 0.109556,0.46509 0.243396,0.46509 0.133741,0 0.210748,-0.2877 0.17105,-0.63924 -0.04299,-0.38053 -0.210685,-0.63924 -0.414446,-0.63924 -0.188251,0 -0.411826,-0.15705 -0.497128,-0.34881 -0.02132,-0.0479 -0.0416,-0.0642 -0.05943,-0.0527 z m 9.227345,0.0527 c -0.25307,0 -0.316344,1.22741 -0.07596,1.47226 0.27925,0.28445 1.001708,0.15916 1.135847,-0.19689 0.15264,-0.4052 -0.327958,-1.10033 -0.629419,-0.91054 -0.11133,0.0701 -0.202054,0.017 -0.202054,-0.11834 0,-0.13538 -0.10291,-0.24649 -0.22841,-0.24649 z m -5.234822,0.23357 c -0.0901,-0.001 -0.191508,0.0896 -0.372587,0.2713 -0.21309,0.2138 -0.325599,0.55384 -0.249597,0.75551 0.16256,0.4315 0.637453,0.47743 1.010274,0.0977 0.200078,-0.20383 0.351375,-0.19537 0.625285,0.0362 0.269528,0.2279 0.427793,0.2388 0.620633,0.0424 0.18842,-0.19176 0.340689,-0.19373 0.560689,-0.008 0.23446,0.19823 0.302308,0.14474 0.302308,-0.23823 0,-0.27132 0.102392,-0.49299 0.227893,-0.49299 0.1255,0 0.228409,0.2089 0.228409,0.46457 0,0.25567 0.102394,0.46509 0.227893,0.46509 0.1255,0 0.22841,-0.20942 0.22841,-0.46509 0,-0.25567 0.102393,-0.46457 0.227893,-0.46457 0.1255,0 0.22841,0.22984 0.22841,0.51108 0,0.40408 0.05875,0.45128 0.280086,0.22582 0.4672,-0.4759 -0.07765,-1.03612 -1.046447,-1.07642 -0.472149,-0.0196 -0.912969,0.0534 -0.979269,0.16278 -0.06636,0.10937 -0.270339,0.0723 -0.453719,-0.0827 -0.26554,-0.22451 -0.408717,-0.20552 -0.703317,0.0946 -0.341069,0.34748 -0.392671,0.34619 -0.659389,-0.0196 -0.135192,-0.18543 -0.21376,-0.2785 -0.303858,-0.27957 z m -4.778002,0.0103 c -0.07709,-0.0135 -0.173453,0.0446 -0.295074,0.16846 -0.19495,0.19863 -0.179602,0.36676 0.06098,0.6687 0.20836,0.26137 0.221163,0.34161 0.03617,0.22841 -0.161139,-0.0987 -0.285255,-0.0603 -0.285255,0.0884 h -5.29e-4 c 0,0.14481 0.17984,0.2254 0.39946,0.1788 0.26956,-0.0572 0.379246,-0.26568 0.337447,-0.64182 -0.04969,-0.44684 -0.124749,-0.66843 -0.253214,-0.69091 z m -1.201478,0.0372 c -0.173784,-0.006 -0.379492,0.0717 -0.593762,0.24392 -0.18913,0.15193 -0.285256,0.14877 -0.285256,-0.01 0,-0.13157 -0.2053,-0.18462 -0.456303,-0.11782 -0.295328,0.0787 -0.456819,0.31742 -0.456819,0.67592 0,0.30468 0.10291,0.55398 0.22841,0.55398 0.125502,0 0.228409,-0.20942 0.228409,-0.46509 0,-0.25567 0.07782,-0.46457 0.173117,-0.46457 0.09531,0 0.30162,0.2089 0.45837,0.46457 0.156749,0.25567 0.489574,0.46509 0.739489,0.46509 0.346871,0 0.454236,-0.15621 0.454236,-0.65888 0,-0.43309 -0.200255,-0.67707 -0.489891,-0.6873 z m -2.470135,0.006 c -0.397623,-0.0268 -0.798348,0.57963 -0.47232,0.97978 0.328567,0.40327 0.922422,0.48587 0.922422,0.12816 0,-0.12784 -0.153848,-0.23254 -0.342099,-0.23254 -0.188235,0 -0.342614,-0.10471 -0.342614,-0.23255 0,-0.12783 0.174742,-0.23202 0.388091,-0.23202 0.302982,0 0.327282,-0.0615 0.112138,-0.28061 -0.08247,-0.084 -0.173857,-0.12403 -0.265618,-0.13022 z m 15.726173,0.009 c -0.51248,-0.0393 -0.796915,0.43404 -0.590145,0.98289 0.07224,0.19175 0.339855,0.34881 0.594796,0.34881 0.67375,0 0.669211,-1.28 -0.0047,-1.3317 z m 2.832902,0.031 c -0.484904,4.5e-4 -0.845457,0.53389 -0.642338,1.00717 0.09662,0.22533 0.159426,0.48805 0.139526,0.58394 -0.06378,0.30694 0.582637,0.18616 0.866097,-0.16174 0.37581,-0.46125 0.210057,-1.35254 -0.264583,-1.42214 -0.0333,-0.005 -0.06638,-0.007 -0.0987,-0.007 z m -1.484148,0.0398 c -0.05629,0.001 -0.117044,0.0101 -0.181901,0.0274 -0.30901,0.0823 -0.470255,0.31556 -0.470255,0.67954 0,0.30468 0.10291,0.55398 0.22841,0.55398 0.1255,0 0.227893,-0.20942 0.227893,-0.46509 0,-0.64263 0.449959,-0.58817 0.482658,0.0584 0.02098,0.41425 0.04914,0.43528 0.133842,0.10232 0.150045,-0.58984 -0.02661,-0.96464 -0.420647,-0.95653 z m -14.799613,0.33125 c 0.1255,0 0.228409,0.10419 0.228409,0.23202 0,0.12784 -0.102909,0.23255 -0.228409,0.23255 -0.1255,0 -0.227894,-0.10471 -0.227894,-0.23255 0,-0.12783 0.102394,-0.23202 0.227894,-0.23202 z m 4.677751,0 c 0.188249,0 0.342614,0.10418 0.342614,0.23202 0,0.12783 -0.154365,0.23255 -0.342614,0.23255 -0.18824,0 -0.342098,-0.10472 -0.342098,-0.23255 0,-0.12784 0.153858,-0.23202 0.342098,-0.23202 z m 1.483114,0 c 0.1255,0 0.22841,0.10418 0.22841,0.23202 0,0.12783 -0.10291,0.23255 -0.22841,0.23255 -0.125492,0 -0.227893,-0.10472 -0.227893,-0.23255 0,-0.12784 0.102401,-0.23202 0.227893,-0.23202 z m 1.369425,0 c 0.12549,0 0.227893,0.10418 0.227893,0.23202 0,0.12783 -0.102403,0.23255 -0.227893,0.23255 -0.1255,0 -0.228409,-0.10472 -0.228409,-0.23255 0,-0.12784 0.102909,-0.23202 0.228409,-0.23202 z m 4.335136,0 c 0.1255,0 0.22841,0.10418 0.22841,0.23202 0,0.12783 -0.10291,0.23255 -0.22841,0.23255 -0.1255,0 -0.227893,-0.10472 -0.227893,-0.23255 0,-0.12784 0.102393,-0.23202 0.227893,-0.23202 z m 1.355989,0 c 0.11809,0 0.278034,0.10418 0.355534,0.23202 0.07756,0.12783 -0.0188,0.23255 -0.214457,0.23255 -0.19566,0 -0.356051,-0.10472 -0.356051,-0.23255 0,-0.12784 0.09687,-0.23202 0.214974,-0.23202 z m 2.979663,0 c 0.1255,0 0.22841,0.10419 0.22841,0.23202 0,0.12784 -0.10291,0.23255 -0.22841,0.23255 -0.1255,0 -0.228409,-0.10471 -0.228409,-0.23255 0,-0.12783 0.102909,-0.23202 0.228409,-0.23202 z m -13.589868,3.37343 c -0.0026,8e-4 -0.005,0.002 -0.0078,0.003 0.0047,6e-5 0.0093,5e-5 0.01394,0 -0.0021,-7.9e-4 -0.0043,-0.002 -0.0062,-0.003 z m 7.474996,0.76378 c 0.0035,0.001 0.0069,0.002 0.01034,0.003 0.0069,-8e-4 0.0178,-0.002 0.0248,-0.003 -0.01171,1e-4 -0.02343,-10e-5 -0.03514,0 z"
       inkscape:connector-curvature="0" />
  </g>
</svg>
